<svg width="42" height="32" viewBox="0 0 42 32" fill="none" xmlns="http://www.w3.org/2000/svg">
<path d="M9.54548 31.8425V15.4429L4.51287 10.7899L0 8.20789V28.9484C0 30.5497 1.28379 31.8425 2.86371 31.8425H9.54548Z" fill="#4285F4"/>
<path d="M32.4545 31.8425H39.1363C40.721 31.8425 42 30.545 42 28.9484V8.20813L36.8885 11.1656L32.4545 15.4429V31.8425Z" fill="#34A853"/>
<path d="M9.54548 15.4429L8.86069 9.03511L9.54548 2.90222L21 11.5843L32.4545 2.90222L33.2205 8.704L32.4545 15.4429L21 24.125L9.54548 15.4429Z" fill="#EA4335"/>
<path d="M32.4545 2.90217V15.4428L42 8.20787V4.34913C42 0.77027 37.9575 -1.26994 35.1274 0.876384L32.4545 2.90217Z" fill="#FBBC04"/>
<path d="M0 8.20794L4.39015 11.5356L9.54548 15.4429V2.90224L6.87258 0.87646C4.03758 -1.27003 0 0.770346 0 4.34904V8.20794Z" fill="#C5221F"/>
</svg>
