<svg width="32" height="32" viewBox="0 0 32 32" fill="none" xmlns="http://www.w3.org/2000/svg">
<path d="M6 7.99996C7.47276 7.99996 8.66667 6.80605 8.66667 5.33329C8.66667 3.86053 7.47276 2.66663 6 2.66663C4.52724 2.66663 3.33333 3.86053 3.33333 5.33329C3.33333 6.80605 4.52724 7.99996 6 7.99996Z" fill="white" stroke="white" stroke-width="2"/>
<path d="M8.66667 12H3.33333V28.6667H8.66667V12Z" fill="white" stroke="white" stroke-width="2" stroke-linejoin="round"/>
<path d="M14 18.3333V28.6667H18.6667V19.3333C18.6667 17.6667 19.6667 16.3333 21.3333 16.3333C23 16.3333 24 18 24 19.3333V28.6667H28.6667V18.3333C28.6667 16.3333 26.3333 12 21.3333 12C16.3333 12 14 16.3333 14 18.3333Z" fill="white" stroke="white" stroke-width="2" stroke-linejoin="round"/>
</svg>
