<svg width="32" height="32" viewBox="0 0 32 32" fill="none" xmlns="http://www.w3.org/2000/svg">
<g clip-path="url(#clip0_145_35)">
<rect width="32" height="32" rx="4" fill="#003366"/>
<path d="M16.2021 -1.03247C21.5895 -0.970867 26.8489 1.7068 30.5566 6.71753C32.3509 9.14239 32.8799 12.1147 32.8799 14.8494V16.1062C32.8797 25.4401 25.3125 33.0076 15.9785 33.0076C6.64485 33.0072 -0.9217 25.4399 -0.921875 16.1062V14.9705C-0.921812 12.1485 -0.347293 9.09614 1.52441 6.62866C5.43891 1.46887 10.8082 -1.09407 16.2021 -1.03247Z" fill="#FFD93D"/>
<path d="M16.2021 -1.03247L16.2193 -2.53237L16.2193 -2.53237L16.2021 -1.03247ZM30.5566 6.71753L31.7624 5.82532L31.7624 5.8253L30.5566 6.71753ZM32.8799 14.8494H34.3799V14.8494L32.8799 14.8494ZM32.8799 16.1062L34.3799 16.1062V16.1062H32.8799ZM15.9785 33.0076L15.9785 34.5076H15.9785V33.0076ZM-0.921875 16.1062H-2.42188V16.1062L-0.921875 16.1062ZM-0.921875 14.9705L-2.42188 14.9704V14.9705H-0.921875ZM1.52441 6.62866L0.329397 5.72206L0.329337 5.72214L1.52441 6.62866ZM16.2021 -1.03247L16.185 0.467431C21.0676 0.523264 25.9008 2.94717 29.3508 7.60976L30.5566 6.71753L31.7624 5.8253C27.7971 0.46642 22.1114 -2.465 16.2193 -2.53237L16.2021 -1.03247ZM30.5566 6.71753L29.3508 7.60974C30.8786 9.67444 31.3799 12.2804 31.3799 14.8494L32.8799 14.8494L34.3799 14.8494C34.3799 11.949 33.8232 8.61034 31.7624 5.82532L30.5566 6.71753ZM32.8799 14.8494H31.3799V16.1062H32.8799H34.3799V14.8494H32.8799ZM32.8799 16.1062L31.3799 16.1062C31.3797 24.6117 24.484 31.5076 15.9785 31.5076V33.0076V34.5076C26.1409 34.5076 34.3797 26.2685 34.3799 16.1062L32.8799 16.1062ZM15.9785 33.0076L15.9786 31.5076C7.47338 31.5073 0.578285 24.6116 0.578125 16.1062L-0.921875 16.1062L-2.42188 16.1062C-2.42168 26.2683 5.81632 34.5072 15.9785 34.5076L15.9785 33.0076ZM-0.921875 16.1062H0.578125V14.9705H-0.921875H-2.42188V16.1062H-0.921875ZM-0.921875 14.9705L0.578125 14.9705C0.578184 12.3247 1.12078 9.64278 2.71949 7.53519L1.52441 6.62866L0.329337 5.72214C-1.81536 8.5495 -2.42181 11.9722 -2.42188 14.9704L-0.921875 14.9705ZM1.52441 6.62866L2.71943 7.53527C6.3693 2.7243 11.3025 0.411672 16.185 0.467432L16.2021 -1.03247L16.2193 -2.53237C10.3139 -2.59981 4.50853 0.21345 0.329397 5.72206L1.52441 6.62866Z" fill="#1F1F1F"/>
<mask id="path-4-outside-1_145_35" maskUnits="userSpaceOnUse" x="19.7998" y="-4.83984" width="16" height="19" fill="black">
<rect fill="white" x="19.7998" y="-4.83984" width="16" height="19"/>
<path d="M30.7998 -2.83984C31.5954 -2.83984 32.3583 -2.52353 32.9209 -1.96094C33.4835 -1.39833 33.7998 -0.635493 33.7998 0.160156V8.7998C33.7997 10.1335 32.9191 11.3077 31.6387 11.6807C30.3584 12.0534 28.9857 11.536 28.2695 10.4111H28.2686V10.4102C28.2678 10.409 28.2662 10.4068 28.2646 10.4043C28.2613 10.399 28.2559 10.3906 28.249 10.3799C28.2351 10.3581 28.2144 10.3251 28.1875 10.2832C28.1335 10.199 28.0549 10.077 27.959 9.92871C27.7667 9.63138 27.5056 9.2303 27.2275 8.8125C26.9475 8.39175 26.6598 7.96862 26.4131 7.62109C26.1238 7.21362 26.0065 7.07664 26.0303 7.10156C26.0642 7.13714 25.9562 7.03286 25.5938 6.75586C25.287 6.52147 24.9132 6.24977 24.5391 5.98438C24.1684 5.72141 23.8132 5.47568 23.5498 5.29492C23.4186 5.20489 23.3105 5.13141 23.2363 5.08105C23.1993 5.05591 23.1704 5.03631 23.1514 5.02344C23.1419 5.01702 23.1344 5.01186 23.1299 5.00879C23.1278 5.0074 23.1259 5.00648 23.125 5.00586L23.124 5.00488C22.2963 4.44741 21.7999 3.51458 21.7998 2.5166V0.160156C21.7998 -1.49663 23.143 -2.83974 24.7998 -2.83984H30.7998ZM26.584 3.7627C26.946 4.02341 27.3073 4.28846 27.6045 4.52148C27.3073 4.28846 26.946 4.02342 26.584 3.7627Z"/>
</mask>
<path d="M30.7998 -2.83984C31.5954 -2.83984 32.3583 -2.52353 32.9209 -1.96094C33.4835 -1.39833 33.7998 -0.635493 33.7998 0.160156V8.7998C33.7997 10.1335 32.9191 11.3077 31.6387 11.6807C30.3584 12.0534 28.9857 11.536 28.2695 10.4111H28.2686V10.4102C28.2678 10.409 28.2662 10.4068 28.2646 10.4043C28.2613 10.399 28.2559 10.3906 28.249 10.3799C28.2351 10.3581 28.2144 10.3251 28.1875 10.2832C28.1335 10.199 28.0549 10.077 27.959 9.92871C27.7667 9.63138 27.5056 9.2303 27.2275 8.8125C26.9475 8.39175 26.6598 7.96862 26.4131 7.62109C26.1238 7.21362 26.0065 7.07664 26.0303 7.10156C26.0642 7.13714 25.9562 7.03286 25.5938 6.75586C25.287 6.52147 24.9132 6.24977 24.5391 5.98438C24.1684 5.72141 23.8132 5.47568 23.5498 5.29492C23.4186 5.20489 23.3105 5.13141 23.2363 5.08105C23.1993 5.05591 23.1704 5.03631 23.1514 5.02344C23.1419 5.01702 23.1344 5.01186 23.1299 5.00879C23.1278 5.0074 23.1259 5.00648 23.125 5.00586L23.124 5.00488C22.2963 4.44741 21.7999 3.51458 21.7998 2.5166V0.160156C21.7998 -1.49663 23.143 -2.83974 24.7998 -2.83984H30.7998ZM26.584 3.7627C26.946 4.02341 27.3073 4.28846 27.6045 4.52148C27.3073 4.28846 26.946 4.02342 26.584 3.7627Z" fill="#003366"/>
<path d="M32.9209 -1.96094L34.3351 -3.37515L34.3351 -3.37516L32.9209 -1.96094ZM33.7998 8.7998L35.7998 8.79991V8.7998H33.7998ZM31.6387 11.6807L32.1977 13.6009L32.198 13.6009L31.6387 11.6807ZM28.2695 10.4111L29.9566 9.33699C29.5894 8.76032 28.9532 8.41113 28.2695 8.41113V10.4111ZM28.2686 10.4111H26.2686C26.2686 11.5157 27.164 12.4111 28.2686 12.4111V10.4111ZM28.2686 10.4102H30.2686C30.2686 10.0294 30.1599 9.65664 29.9553 9.33555L28.2686 10.4102ZM28.2646 10.4043L26.5783 11.4795L26.5786 11.48L28.2646 10.4043ZM28.249 10.3799L29.9346 9.30336L29.9346 9.30335L28.249 10.3799ZM28.1875 10.2832L29.8712 9.20385L29.8712 9.20383L28.1875 10.2832ZM27.959 9.92871L29.6383 8.84247L29.6383 8.84246L27.959 9.92871ZM27.2275 8.8125L28.8925 7.70443L28.8925 7.70443L27.2275 8.8125ZM26.4131 7.62109L28.0438 6.46323L28.0438 6.46322L26.4131 7.62109ZM26.0303 7.10156L27.4768 5.72037L27.4765 5.72013L26.0303 7.10156ZM25.5938 6.75586L26.8082 5.16678L26.8082 5.16677L25.5938 6.75586ZM24.5391 5.98438L25.6963 4.35318L25.6963 4.35318L24.5391 5.98438ZM23.5498 5.29492L24.6814 3.6458L24.6813 3.64579L23.5498 5.29492ZM23.2363 5.08105L24.3597 3.42635L24.3597 3.42634L23.2363 5.08105ZM23.1514 5.02344L22.0313 6.6804L22.0314 6.68044L23.1514 5.02344ZM23.1299 5.00879L24.2483 3.35073L24.2444 3.34812L23.1299 5.00879ZM23.125 5.00586L21.7108 6.42007C21.8016 6.51085 21.9009 6.59267 22.0073 6.66442L23.125 5.00586ZM23.124 5.00488L24.5382 3.59067C24.4473 3.49976 24.3479 3.41783 24.2412 3.34602L23.124 5.00488ZM21.7998 2.5166H19.7998V2.51676L21.7998 2.5166ZM24.7998 -2.83984V-4.83984H24.7997L24.7998 -2.83984ZM27.7527 2.13972C26.8564 1.49424 25.6065 1.69761 24.961 2.59395C24.3155 3.4903 24.5189 4.74019 25.4152 5.38567L26.584 3.7627L27.7527 2.13972ZM27.6045 4.52148L26.3704 6.09532C27.2396 6.77689 28.4967 6.62481 29.1783 5.75563C29.8599 4.88645 29.7078 3.6293 28.8387 2.9477L27.6045 4.52148ZM30.7998 -2.83984V-0.839844C31.0645 -0.839844 31.3188 -0.734644 31.5067 -0.546711L32.9209 -1.96094L34.3351 -3.37516C33.3978 -4.31243 32.1264 -4.83984 30.7998 -4.83984V-2.83984ZM32.9209 -1.96094L31.5067 -0.546724C31.6946 -0.3588 31.7998 -0.104513 31.7998 0.160156H33.7998H35.7998C35.7998 -1.16647 35.2724 -2.43786 34.3351 -3.37515L32.9209 -1.96094ZM33.7998 0.160156H31.7998V8.7998H33.7998H35.7998V0.160156H33.7998ZM33.7998 8.7998L31.7998 8.7997C31.7998 9.2447 31.5057 9.63627 31.0794 9.76047L31.6387 11.6807L32.198 13.6009C34.3325 12.9791 35.7997 11.0222 35.7998 8.79991L33.7998 8.7998ZM31.6387 11.6807L31.0796 9.76039C30.6533 9.88452 30.1956 9.71232 29.9566 9.33699L28.2695 10.4111L26.5825 11.4853C27.7759 13.3596 30.0634 14.2223 32.1977 13.6009L31.6387 11.6807ZM28.2695 10.4111V8.41113H28.2686V10.4111V12.4111H28.2695V10.4111ZM28.2686 10.4111H30.2686V10.4102H28.2686H26.2686V10.4111H28.2686ZM28.2686 10.4102L29.9553 9.33555C29.9507 9.3282 29.9465 9.32185 29.9432 9.31677C29.9399 9.31165 29.937 9.30722 29.9346 9.30367C29.9301 9.29682 29.9264 9.29137 29.9244 9.2885C29.9225 9.28559 29.9209 9.28322 29.9206 9.28279C29.9198 9.28162 29.9205 9.28274 29.9209 9.28335C29.9222 9.2852 29.926 9.29078 29.9308 9.29808C29.9358 9.30547 29.9426 9.31592 29.9507 9.32859L28.2646 10.4043L26.5786 11.48C26.5875 11.4939 26.5951 11.5056 26.6008 11.5141C26.6064 11.5226 26.611 11.5292 26.6129 11.5321C26.6137 11.5332 26.6148 11.5348 26.6143 11.5341C26.6142 11.534 26.6139 11.5335 26.6134 11.5329C26.613 11.5322 26.6122 11.5311 26.6113 11.5297C26.6096 11.5272 26.6062 11.5222 26.6019 11.5157C26.5996 11.5123 26.5968 11.508 26.5936 11.5031C26.5904 11.4982 26.5864 11.492 26.5818 11.4848L28.2686 10.4102ZM28.2646 10.4043L29.951 9.32907C29.9478 9.32399 29.944 9.3181 29.9421 9.31505C29.9395 9.31107 29.9371 9.30737 29.9346 9.30336L28.249 10.3799L26.5635 11.4564C26.5678 11.4631 26.5715 11.469 26.5742 11.4732C26.5757 11.4755 26.5766 11.4769 26.5774 11.4782C26.5783 11.4795 26.5784 11.4798 26.5783 11.4795L28.2646 10.4043ZM28.249 10.3799L29.9346 9.30335C29.9298 9.29584 29.9243 9.28722 29.9119 9.26762C29.9009 9.25026 29.8871 9.22857 29.8712 9.20385L28.1875 10.2832L26.5038 11.3626C26.5148 11.3797 26.5248 11.3955 26.5343 11.4106C26.5425 11.4234 26.5544 11.4422 26.5635 11.4564L28.249 10.3799ZM28.1875 10.2832L29.8712 9.20383C29.8152 9.11649 29.735 8.99196 29.6383 8.84247L27.959 9.92871L26.2797 11.015C26.3748 11.1621 26.4519 11.2816 26.5038 11.3626L28.1875 10.2832ZM27.959 9.92871L29.6383 8.84246C29.4435 8.5413 29.1772 8.13225 28.8925 7.70443L27.2275 8.8125L25.5625 9.92057C25.8339 10.3284 26.0898 10.7215 26.2797 11.015L27.959 9.92871ZM27.2275 8.8125L28.8925 7.70443C28.6068 7.27512 28.3068 6.83363 28.0438 6.46323L26.4131 7.62109L24.7823 8.77896C25.0128 9.10361 25.2882 9.50837 25.5626 9.92057L27.2275 8.8125ZM26.4131 7.62109L28.0438 6.46322C27.8862 6.24122 27.7713 6.08707 27.6952 5.98722C27.6576 5.9379 27.6298 5.90218 27.6202 5.88982C27.5946 5.8567 27.6347 5.90718 27.6719 5.96085C27.6807 5.97357 27.6985 5.99947 27.7197 6.03312C27.7301 6.04969 27.7886 6.14129 27.846 6.26688C27.8666 6.31172 27.9498 6.49251 27.995 6.74108C28.0171 6.86223 28.0563 7.13381 27.9922 7.47163C27.9211 7.84643 27.6972 8.39356 27.1276 8.76884C26.599 9.11715 26.0733 9.11569 25.8099 9.08688C25.541 9.05747 25.34 8.97976 25.2448 8.9393C25.0507 8.85678 24.9152 8.76172 24.8753 8.73359C24.7736 8.66188 24.7014 8.5961 24.6862 8.58235C24.6584 8.55725 24.6372 8.53663 24.6266 8.52618C24.6049 8.50488 24.5888 8.48798 24.584 8.48299L26.0303 7.10156L27.4765 5.72013C27.4703 5.71358 27.4529 5.69544 27.4303 5.67322C27.4192 5.66232 27.3976 5.64132 27.3695 5.61592C27.354 5.60188 27.2816 5.53587 27.1796 5.46403C27.1396 5.43584 27.004 5.34073 26.8099 5.25818C26.7147 5.21771 26.5137 5.14 26.2448 5.11059C25.9813 5.08178 25.4556 5.08032 24.927 5.42863C24.3573 5.80392 24.1335 6.35107 24.0623 6.72589C23.9982 7.06373 24.0375 7.33532 24.0595 7.45651C24.1047 7.70514 24.1881 7.886 24.2086 7.93094C24.2662 8.05673 24.3248 8.14862 24.3355 8.16555C24.3569 8.19957 24.375 8.22592 24.3842 8.23918C24.403 8.26639 24.4186 8.28745 24.4242 8.29497C24.4316 8.30493 24.4378 8.31311 24.4415 8.31788C24.4485 8.32719 24.4552 8.33581 24.4585 8.34003C24.4733 8.35907 24.4884 8.3784 24.5133 8.41113C24.5623 8.47541 24.6507 8.5935 24.7823 8.77896L26.4131 7.62109ZM26.0303 7.10156L24.5838 8.48275C24.5818 8.48066 24.5767 8.47536 24.5701 8.46822C24.5648 8.46251 24.5504 8.44705 24.5323 8.42647C24.5288 8.42249 24.4661 8.35257 24.3985 8.25623C24.3942 8.25005 24.2432 8.04723 24.143 7.75313C24.115 7.6709 23.9097 7.10433 24.1564 6.42535C24.3074 6.00974 24.601 5.63408 25.0162 5.38789C25.3941 5.16388 25.7548 5.11602 25.9744 5.10924C26.3719 5.09696 26.6683 5.20936 26.7386 5.23573C26.8539 5.27898 26.9406 5.32385 26.9834 5.34688C27.0716 5.39431 27.1364 5.43803 27.1589 5.4533C27.2118 5.48921 27.251 5.51976 27.2596 5.52638C27.2745 5.53792 27.2857 5.547 27.2904 5.55078C27.2959 5.55523 27.2998 5.55851 27.3013 5.55975C27.3023 5.56054 27.3039 5.5619 27.2863 5.54713C27.2734 5.53631 27.256 5.52182 27.2347 5.50419C27.1477 5.43236 27.0103 5.32122 26.8082 5.16678L25.5938 6.75586L24.3793 8.34494C24.5397 8.4675 24.6375 8.547 24.6867 8.58767C24.6994 8.59816 24.7099 8.60691 24.719 8.61458C24.7235 8.61829 24.7414 8.63338 24.7534 8.64327C24.7574 8.64655 24.78 8.66529 24.8077 8.68684C24.8177 8.69459 24.8581 8.72598 24.9118 8.76245C24.9347 8.77799 24.9999 8.82192 25.0883 8.86949C25.1313 8.89259 25.2181 8.93751 25.3334 8.98079C25.4038 9.0072 25.7003 9.11961 26.0979 9.10733C26.3175 9.10055 26.6782 9.05268 27.0561 8.82866C27.4714 8.58246 27.765 8.20679 27.916 7.79116C28.1627 7.11215 27.9574 6.54552 27.9293 6.46321C27.8291 6.16897 27.678 5.96594 27.6734 5.95948C27.6055 5.86258 27.5421 5.7918 27.5376 5.78671C27.5061 5.75087 27.4784 5.72211 27.4768 5.72037L26.0303 7.10156ZM25.5938 6.75586L26.8082 5.16677C26.475 4.91218 26.0798 4.62528 25.6963 4.35318L24.5391 5.98438L23.3818 7.61557C23.7465 7.87426 24.0991 8.13076 24.3793 8.34495L25.5938 6.75586ZM24.5391 5.98438L25.6963 4.35318C25.3143 4.08216 24.95 3.83011 24.6814 3.6458L23.5498 5.29492L22.4183 6.94404C22.6765 7.12125 23.0225 7.36065 23.3818 7.61557L24.5391 5.98438ZM23.5498 5.29492L24.6813 3.64579C24.5462 3.55309 24.4351 3.47753 24.3597 3.42635L23.2363 5.08105L22.113 6.73576C22.1859 6.78529 22.2909 6.85669 22.4183 6.94405L23.5498 5.29492ZM23.2363 5.08105L24.3597 3.42634C24.3233 3.40165 24.2925 3.38072 24.2713 3.36643L23.1514 5.02344L22.0314 6.68044C22.0484 6.69191 22.0753 6.71016 22.113 6.73576L23.2363 5.08105ZM23.1514 5.02344L24.2714 3.36648C24.2718 3.36675 24.2716 3.3666 24.2689 3.36476C24.2683 3.36432 24.265 3.36208 24.2626 3.36046C24.2601 3.35877 24.2547 3.35506 24.2483 3.35073L23.1299 5.00879L22.0115 6.66684C22.0092 6.66529 22.0074 6.6641 22.0065 6.66349C22.006 6.66316 22.0057 6.6629 22.0054 6.66274C22.0052 6.66259 22.0051 6.66249 22.005 6.66248C22.005 6.66247 22.0051 6.66251 22.0052 6.66262C22.0054 6.66273 22.0056 6.66289 22.0059 6.66311C22.0062 6.66329 22.0078 6.66441 22.0086 6.66495C22.0132 6.66807 22.0214 6.67371 22.0313 6.6804L23.1514 5.02344ZM23.1299 5.00879L24.2444 3.34812C24.2119 3.3263 24.1835 3.30861 24.1615 3.29535C24.1399 3.28229 24.1226 3.27241 24.115 3.26812C24.1131 3.26702 24.1115 3.26615 24.1108 3.26571C24.1104 3.2655 24.1101 3.26532 24.11 3.26529C24.1099 3.26521 24.1101 3.26532 24.1103 3.26544C24.1107 3.26566 24.1122 3.26653 24.1142 3.26765C24.1162 3.2688 24.1194 3.27062 24.1233 3.27288C24.1273 3.27514 24.1326 3.27821 24.1388 3.2819C24.1451 3.28557 24.1531 3.2903 24.1623 3.29589C24.1715 3.30145 24.1829 3.30846 24.1959 3.3167C24.2088 3.3249 24.2247 3.33517 24.2427 3.3473L23.125 5.00586L22.0073 6.66442C22.0254 6.67662 22.0414 6.68698 22.0545 6.69526C22.0676 6.70358 22.0792 6.71067 22.0885 6.71632C22.0978 6.722 22.106 6.72682 22.1124 6.73058C22.1188 6.73436 22.1243 6.73753 22.1284 6.73989C22.1325 6.74224 22.1358 6.74416 22.138 6.74541C22.1402 6.74664 22.1419 6.74761 22.1425 6.74794C22.1427 6.74804 22.1428 6.74813 22.1429 6.74818C22.143 6.7482 22.143 6.74822 22.143 6.74823C22.143 6.74824 22.143 6.74825 22.1431 6.74825C22.1431 6.74826 22.1431 6.74826 22.1431 6.74826C22.1431 6.74828 22.1429 6.74816 22.1426 6.74801C22.1421 6.74769 22.1407 6.74693 22.139 6.74595C22.1323 6.74215 22.1159 6.73279 22.0952 6.72031C22.0742 6.70764 22.0468 6.69058 22.0154 6.66946L23.1299 5.00879ZM23.125 5.00586L24.5392 3.59165L24.5382 3.59067L23.124 5.00488L21.7098 6.4191L21.7108 6.42007L23.125 5.00586ZM23.124 5.00488L24.2412 3.34602C23.9654 3.16025 23.7998 2.84921 23.7998 2.51644L21.7998 2.5166L19.7998 2.51676C19.7999 4.17996 20.6271 5.73456 22.0068 6.66375L23.124 5.00488ZM21.7998 2.5166H23.7998V0.160156H21.7998H19.7998V2.5166H21.7998ZM21.7998 0.160156H23.7998C23.7998 -0.391937 24.2475 -0.839809 24.7999 -0.839844L24.7998 -2.83984L24.7997 -4.83984C22.0386 -4.83967 19.7998 -2.60133 19.7998 0.160156H21.7998ZM24.7998 -2.83984V-0.839844H30.7998V-2.83984V-4.83984H24.7998V-2.83984ZM26.584 3.7627L25.4152 5.38567C25.7725 5.64296 26.1067 5.88852 26.3704 6.09532L27.6045 4.52148L28.8386 2.94764C28.508 2.68839 28.1195 2.40386 27.7527 2.13972L26.584 3.7627ZM27.6045 4.52148L28.8387 2.9477C28.508 2.68839 28.1195 2.40383 27.7527 2.13972L26.584 3.7627L25.4152 5.38567C25.7726 5.64301 26.1067 5.88853 26.3703 6.09527L27.6045 4.52148Z" fill="#1F1F1F" mask="url(#path-4-outside-1_145_35)"/>
<mask id="path-6-outside-2_145_35" maskUnits="userSpaceOnUse" x="-3.7998" y="-4.83984" width="16" height="19" fill="black">
<rect fill="white" x="-3.7998" y="-4.83984" width="16" height="19"/>
<path d="M7.2002 -2.83984C8.85696 -2.83974 10.2002 -1.49663 10.2002 0.160156V2.5166C10.2001 3.51458 9.70372 4.44741 8.87598 5.00488L8.875 5.00586C8.87408 5.00648 8.87219 5.0074 8.87012 5.00879C8.86557 5.01186 8.85813 5.01702 8.84863 5.02344C8.82958 5.03631 8.80072 5.05591 8.76367 5.08105C8.6895 5.13141 8.58141 5.20489 8.4502 5.29492C8.18676 5.47568 7.83161 5.72141 7.46094 5.98438C7.08685 6.24977 6.71295 6.52147 6.40625 6.75586C6.04379 7.03286 5.93575 7.13714 5.96973 7.10156C5.99353 7.07664 5.87623 7.21362 5.58691 7.62109C5.34016 7.96862 5.05248 8.39175 4.77246 8.8125C4.49441 9.2303 4.23334 9.63138 4.04102 9.92871C3.94509 10.077 3.86645 10.199 3.8125 10.2832C3.78565 10.3251 3.76488 10.3581 3.75098 10.3799C3.74412 10.3906 3.73872 10.399 3.73535 10.4043C3.73376 10.4068 3.73218 10.409 3.73145 10.4102V10.4111H3.73047C3.01429 11.536 1.64165 12.0534 0.361328 11.6807C-0.919132 11.3077 -1.79974 10.1335 -1.7998 8.7998V0.160156C-1.7998 -0.635493 -1.48351 -1.39833 -0.920898 -1.96094C-0.358291 -2.52353 0.404555 -2.83984 1.2002 -2.83984H7.2002ZM5.61523 3.61719C6.03975 3.31383 6.45079 3.02821 6.74805 2.82422L6.75293 2.82031C6.45528 3.02454 6.04214 3.31199 5.61523 3.61719Z"/>
</mask>
<path d="M7.2002 -2.83984C8.85696 -2.83974 10.2002 -1.49663 10.2002 0.160156V2.5166C10.2001 3.51458 9.70372 4.44741 8.87598 5.00488L8.875 5.00586C8.87408 5.00648 8.87219 5.0074 8.87012 5.00879C8.86557 5.01186 8.85813 5.01702 8.84863 5.02344C8.82958 5.03631 8.80072 5.05591 8.76367 5.08105C8.6895 5.13141 8.58141 5.20489 8.4502 5.29492C8.18676 5.47568 7.83161 5.72141 7.46094 5.98438C7.08685 6.24977 6.71295 6.52147 6.40625 6.75586C6.04379 7.03286 5.93575 7.13714 5.96973 7.10156C5.99353 7.07664 5.87623 7.21362 5.58691 7.62109C5.34016 7.96862 5.05248 8.39175 4.77246 8.8125C4.49441 9.2303 4.23334 9.63138 4.04102 9.92871C3.94509 10.077 3.86645 10.199 3.8125 10.2832C3.78565 10.3251 3.76488 10.3581 3.75098 10.3799C3.74412 10.3906 3.73872 10.399 3.73535 10.4043C3.73376 10.4068 3.73218 10.409 3.73145 10.4102V10.4111H3.73047C3.01429 11.536 1.64165 12.0534 0.361328 11.6807C-0.919132 11.3077 -1.79974 10.1335 -1.7998 8.7998V0.160156C-1.7998 -0.635493 -1.48351 -1.39833 -0.920898 -1.96094C-0.358291 -2.52353 0.404555 -2.83984 1.2002 -2.83984H7.2002ZM5.61523 3.61719C6.03975 3.31383 6.45079 3.02821 6.74805 2.82422L6.75293 2.82031C6.45528 3.02454 6.04214 3.31199 5.61523 3.61719Z" fill="#003366"/>
<path d="M7.2002 -2.83984L7.20032 -4.83984H7.2002V-2.83984ZM10.2002 2.5166L12.2002 2.51676V2.5166H10.2002ZM8.87598 5.00488L7.75876 3.34602C7.65213 3.41783 7.55267 3.49976 7.46176 3.59067L8.87598 5.00488ZM8.875 5.00586L9.99267 6.66442C10.0991 6.59267 10.1984 6.51085 10.2892 6.42007L8.875 5.00586ZM8.87012 5.00879L7.75562 3.34809L7.7517 3.35073L8.87012 5.00879ZM8.84863 5.02344L9.9686 6.68044L9.96867 6.6804L8.84863 5.02344ZM8.76367 5.08105L7.64031 3.42634L7.64031 3.42635L8.76367 5.08105ZM8.4502 5.29492L7.31866 3.64579L7.31865 3.6458L8.4502 5.29492ZM7.46094 5.98438L6.3037 4.35318L6.3037 4.35318L7.46094 5.98438ZM6.40625 6.75586L5.19184 5.16677L5.19183 5.16678L6.40625 6.75586ZM5.96973 7.10156L4.52348 5.72013L4.52324 5.72037L5.96973 7.10156ZM5.58691 7.62109L3.95617 6.46322L3.95616 6.46323L5.58691 7.62109ZM4.77246 8.8125L3.10747 7.70443L3.10747 7.70443L4.77246 8.8125ZM4.04102 9.92871L2.36171 8.84246L2.36171 8.84247L4.04102 9.92871ZM3.8125 10.2832L2.12877 9.20383L2.12876 9.20385L3.8125 10.2832ZM3.75098 10.3799L2.06543 9.30335L2.06542 9.30336L3.75098 10.3799ZM3.73535 10.4043L5.42143 11.48L5.42173 11.4795L3.73535 10.4043ZM3.73145 10.4102L2.04467 9.33555C1.84011 9.65664 1.73145 10.0294 1.73145 10.4102H3.73145ZM3.73145 10.4111V12.4111C4.83601 12.4111 5.73145 11.5157 5.73145 10.4111H3.73145ZM3.73047 10.4111V8.41113C3.04683 8.41113 2.41056 8.76032 2.0434 9.33699L3.73047 10.4111ZM0.361328 11.6807L-0.197991 13.6009L-0.197739 13.6009L0.361328 11.6807ZM-1.7998 8.7998H-3.7998V8.79991L-1.7998 8.7998ZM-0.920898 -1.96094L-2.3351 -3.37516L-2.33511 -3.37515L-0.920898 -1.96094ZM5.61523 3.61719L4.45209 1.9902C3.55359 2.63254 3.34588 3.8816 3.98813 4.78016C4.63037 5.67873 5.87942 5.88657 6.77805 5.24442L5.61523 3.61719ZM6.74805 2.82422L7.87968 4.47328C7.91999 4.44562 7.95926 4.41649 7.99744 4.38596L6.74805 2.82422ZM6.75293 2.82031L8.00232 4.38205C8.84255 3.70986 9.00036 2.49337 8.35944 1.62905C7.71853 0.764725 6.50864 0.562405 5.62139 1.17118L6.75293 2.82031ZM7.2002 -2.83984L7.20007 -0.839844C7.75249 -0.839808 8.2002 -0.391937 8.2002 0.160156H10.2002H12.2002C12.2002 -2.60133 9.96143 -4.83967 7.20032 -4.83984L7.2002 -2.83984ZM10.2002 0.160156H8.2002V2.5166H10.2002H12.2002V0.160156H10.2002ZM10.2002 2.5166L8.2002 2.51644C8.20017 2.84921 8.03459 3.16025 7.75876 3.34602L8.87598 5.00488L9.99319 6.66375C11.3729 5.73456 12.2001 4.17996 12.2002 2.51676L10.2002 2.5166ZM8.87598 5.00488L7.46176 3.59067L7.46079 3.59165L8.875 5.00586L10.2892 6.42007L10.2902 6.4191L8.87598 5.00488ZM8.875 5.00586L7.75733 3.3473C7.77533 3.33517 7.79121 3.3249 7.80414 3.3167C7.81714 3.30846 7.82852 3.30146 7.8377 3.2959C7.84691 3.29031 7.85488 3.28558 7.86113 3.28191C7.86741 3.27822 7.87271 3.27515 7.87664 3.27289C7.88056 3.27063 7.88376 3.26881 7.88577 3.26767C7.88776 3.26654 7.88929 3.26568 7.88968 3.26545C7.88989 3.26534 7.89009 3.26522 7.88995 3.2653C7.8899 3.26533 7.88958 3.26551 7.8892 3.26572C7.88844 3.26616 7.8869 3.26703 7.88497 3.26813C7.87742 3.27241 7.86012 3.28229 7.83848 3.29535C7.81651 3.3086 7.78812 3.32629 7.75562 3.3481L8.87012 5.00879L9.98461 6.66948C9.95315 6.69059 9.92577 6.70765 9.90477 6.72032C9.88409 6.73279 9.86771 6.74214 9.86102 6.74594C9.8593 6.74692 9.85796 6.74768 9.8574 6.748C9.85712 6.74815 9.85691 6.74827 9.85695 6.74825C9.85696 6.74825 9.85696 6.74824 9.85697 6.74824C9.85697 6.74824 9.85698 6.74823 9.85699 6.74822C9.85702 6.74821 9.85706 6.74819 9.8571 6.74816C9.85719 6.74811 9.85733 6.74803 9.85751 6.74793C9.8581 6.7476 9.85981 6.74663 9.86198 6.7454C9.86418 6.74415 9.86755 6.74223 9.87164 6.73987C9.87574 6.73752 9.88121 6.73435 9.88764 6.73057C9.89405 6.72681 9.90217 6.72199 9.91152 6.71631C9.92084 6.71066 9.93236 6.70358 9.94549 6.69526C9.95855 6.68698 9.97456 6.67662 9.99267 6.66442L8.875 5.00586ZM8.87012 5.00879L7.7517 3.35073C7.74529 3.35506 7.73986 3.35877 7.73738 3.36046C7.73502 3.36208 7.73174 3.36432 7.7311 3.36476C7.72842 3.3666 7.72819 3.36675 7.7286 3.36648L8.84863 5.02344L9.96867 6.6804C9.97856 6.67371 9.98681 6.66807 9.99136 6.66495C9.99215 6.66441 9.99378 6.66329 9.99405 6.66311C9.99437 6.66289 9.9946 6.66273 9.99476 6.66262C9.99493 6.66251 9.99498 6.66247 9.99497 6.66248C9.99495 6.66249 9.99481 6.66259 9.99458 6.66274C9.99435 6.6629 9.99397 6.66316 9.99349 6.66349C9.99259 6.6641 9.99084 6.66529 9.98853 6.66684L8.87012 5.00879ZM8.84863 5.02344L7.72866 3.36643C7.70752 3.38072 7.67669 3.40165 7.64031 3.42634L8.76367 5.08105L9.88703 6.73576C9.92475 6.71016 9.95164 6.69191 9.9686 6.68044L8.84863 5.02344ZM8.76367 5.08105L7.64031 3.42635C7.56491 3.47753 7.45376 3.55309 7.31866 3.64579L8.4502 5.29492L9.58173 6.94405C9.70905 6.85669 9.81409 6.78529 9.88704 6.73576L8.76367 5.08105ZM8.4502 5.29492L7.31865 3.6458C7.05004 3.83011 6.68572 4.08216 6.3037 4.35318L7.46094 5.98438L8.61818 7.61557C8.9775 7.36065 9.32348 7.12125 9.58175 6.94404L8.4502 5.29492ZM7.46094 5.98438L6.3037 4.35318C5.92016 4.62528 5.52498 4.91218 5.19184 5.16677L6.40625 6.75586L7.62066 8.34495C7.90093 8.13076 8.25354 7.87426 8.61818 7.61557L7.46094 5.98438ZM6.40625 6.75586L5.19183 5.16678C4.98974 5.32122 4.85226 5.43236 4.76534 5.50419C4.744 5.52182 4.72665 5.53631 4.71372 5.54713C4.69607 5.5619 4.69772 5.56054 4.69867 5.55975C4.70016 5.55851 4.70414 5.55523 4.70963 5.55078C4.7143 5.547 4.72554 5.53792 4.74041 5.52638C4.74895 5.51976 4.78819 5.48921 4.84108 5.4533C4.86355 5.43803 4.92843 5.39431 5.0166 5.34688C5.05942 5.32385 5.14611 5.27898 5.26137 5.23573C5.33167 5.20936 5.62805 5.09696 6.02559 5.10924C6.24516 5.11602 6.60592 5.16388 6.98377 5.38789C7.39903 5.63408 7.69263 6.00974 7.84361 6.42535C8.09027 7.10433 7.88499 7.6709 7.85697 7.75313C7.75678 8.04723 7.60579 8.25005 7.60145 8.25623C7.53389 8.35257 7.47118 8.42249 7.46768 8.42647C7.4496 8.44705 7.43523 8.46251 7.42991 8.46822C7.42326 8.47536 7.41821 8.48066 7.41621 8.48275L5.96973 7.10156L4.52324 5.72037C4.52158 5.72211 4.49389 5.75087 4.46241 5.78671C4.45793 5.7918 4.39452 5.86258 4.32656 5.95948C4.32203 5.96594 4.17091 6.16897 4.07067 6.46321C4.04263 6.54552 3.83734 7.11215 4.08402 7.79116C4.23501 8.20679 4.52861 8.58246 4.94389 8.82866C5.32176 9.05268 5.68254 9.10055 5.90214 9.10733C6.29972 9.11961 6.59618 9.0072 6.66657 8.98079C6.78191 8.93751 6.86872 8.89259 6.91166 8.86949C7.00009 8.82192 7.0653 8.77799 7.08819 8.76245C7.14189 8.72598 7.18227 8.69459 7.19226 8.68684C7.22003 8.66529 7.24263 8.64655 7.24658 8.64327C7.25856 8.63338 7.27654 8.61829 7.28097 8.61458C7.29013 8.60691 7.30061 8.59816 7.31331 8.58767C7.36253 8.547 7.4603 8.4675 7.62067 8.34494L6.40625 6.75586ZM5.96973 7.10156L7.41598 8.483C7.41121 8.48799 7.39505 8.50489 7.37337 8.52619C7.36274 8.53664 7.34154 8.55727 7.31379 8.58237C7.29859 8.59612 7.22639 8.66194 7.12459 8.73367C7.08468 8.76179 6.94904 8.85693 6.75478 8.93947C6.65954 8.97993 6.45832 9.05768 6.18915 9.08698C5.92533 9.11571 5.3993 9.11677 4.8707 8.76774C4.3015 8.39191 4.07835 7.84471 4.00756 7.47044C3.94372 7.13293 3.98302 6.86165 4.00506 6.74059C4.05027 6.49223 4.1335 6.31159 4.15402 6.26676C4.21145 6.14123 4.26992 6.04966 4.28036 6.03309C4.30156 5.99945 4.3193 5.97356 4.32812 5.96084C4.36531 5.90717 4.40544 5.85671 4.37978 5.88982C4.3702 5.90219 4.34235 5.9379 4.30478 5.98722C4.22872 6.08707 4.1138 6.24122 3.95617 6.46322L5.58691 7.62109L7.21766 8.77896C7.34935 8.5935 7.43774 8.47541 7.4867 8.41114C7.51164 8.3784 7.52674 8.35907 7.5415 8.34003C7.54477 8.33581 7.55145 8.32719 7.55854 8.31788C7.56218 8.31311 7.56839 8.30493 7.57579 8.29497C7.58138 8.28745 7.59699 8.26639 7.61584 8.23919C7.62503 8.22594 7.64308 8.19959 7.66451 8.16558C7.67518 8.14864 7.73381 8.05679 7.79134 7.93106C7.8119 7.88613 7.89516 7.70541 7.94038 7.45699C7.96242 7.33591 8.00172 7.06461 7.93788 6.72708C7.86709 6.35279 7.64393 5.80557 7.07471 5.42973C6.5461 5.0807 6.02005 5.08176 5.75621 5.11048C5.48703 5.13979 5.28577 5.21754 5.19051 5.25802C4.99619 5.34059 4.86047 5.43577 4.82047 5.46396C4.71848 5.53582 4.64602 5.60186 4.63049 5.6159C4.60241 5.6413 4.58081 5.66231 4.56972 5.67321C4.5471 5.69544 4.52973 5.71358 4.52348 5.72013L5.96973 7.10156ZM5.58691 7.62109L3.95616 6.46323C3.69317 6.83363 3.39318 7.27512 3.10747 7.70443L4.77246 8.8125L6.43745 9.92057C6.71177 9.50837 6.98715 9.10361 7.21767 8.77896L5.58691 7.62109ZM4.77246 8.8125L3.10747 7.70443C2.82275 8.13225 2.55651 8.5413 2.36171 8.84246L4.04102 9.92871L5.72032 11.015C5.91016 10.7215 6.16606 10.3284 6.43745 9.92057L4.77246 8.8125ZM4.04102 9.92871L2.36171 8.84247C2.26501 8.99196 2.18476 9.11649 2.12877 9.20383L3.8125 10.2832L5.49623 11.3626C5.54815 11.2816 5.62517 11.1621 5.72032 11.015L4.04102 9.92871ZM3.8125 10.2832L2.12876 9.20385C2.11291 9.22857 2.09912 9.25026 2.08811 9.26762C2.07567 9.28722 2.07022 9.29584 2.06543 9.30335L3.75098 10.3799L5.43653 11.4564C5.44563 11.4422 5.45752 11.4234 5.46566 11.4106C5.47521 11.3955 5.48524 11.3797 5.49624 11.3626L3.8125 10.2832ZM3.75098 10.3799L2.06542 9.30336C2.06286 9.30737 2.06049 9.31107 2.05794 9.31505C2.05599 9.3181 2.05221 9.32399 2.04897 9.32907L3.73535 10.4043L5.42173 11.4795C5.42155 11.4798 5.42172 11.4795 5.42256 11.4782C5.42339 11.4769 5.42432 11.4755 5.42577 11.4732C5.42848 11.469 5.43223 11.4631 5.43653 11.4564L3.75098 10.3799ZM3.73535 10.4043L2.04927 9.3286C2.05736 9.31592 2.06424 9.30547 2.06915 9.29808C2.07401 9.29078 2.0778 9.2852 2.07907 9.28334C2.07948 9.28274 2.08024 9.28161 2.07945 9.28278C2.07915 9.28322 2.07754 9.28558 2.07557 9.2885C2.07363 9.29137 2.06995 9.29682 2.0654 9.30367C2.06305 9.30722 2.06012 9.31165 2.05678 9.31677C2.05347 9.32185 2.04935 9.3282 2.04467 9.33555L3.73145 10.4102L5.41822 11.4848C5.41363 11.492 5.40962 11.4982 5.40641 11.5031C5.40317 11.508 5.40036 11.5123 5.39812 11.5157C5.39381 11.5222 5.39038 11.5272 5.38872 11.5297C5.38779 11.5311 5.38704 11.5322 5.38658 11.5329C5.38612 11.5335 5.38579 11.534 5.38572 11.5341C5.38524 11.5348 5.38633 11.5332 5.38709 11.5321C5.38904 11.5293 5.39357 11.5226 5.39919 11.5141C5.40487 11.5056 5.41255 11.4939 5.42143 11.48L3.73535 10.4043ZM3.73145 10.4102H1.73145V10.4111H3.73145H5.73145V10.4102H3.73145ZM3.73145 10.4111V8.41113H3.73047V10.4111V12.4111H3.73145V10.4111ZM3.73047 10.4111L2.0434 9.33699C1.80443 9.71232 1.34673 9.88452 0.920396 9.76039L0.361328 11.6807L-0.197739 13.6009C1.93656 14.2223 4.22415 13.3596 5.41754 11.4853L3.73047 10.4111ZM0.361328 11.6807L0.920647 9.76047C0.494259 9.63627 0.200218 9.2447 0.200195 8.7997L-1.7998 8.7998L-3.7998 8.79991C-3.79969 11.0222 -2.33252 12.9791 -0.197991 13.6009L0.361328 11.6807ZM-1.7998 8.7998H0.200195V0.160156H-1.7998H-3.7998V8.7998H-1.7998ZM-1.7998 0.160156H0.200195C0.200195 -0.104513 0.305392 -0.3588 0.493315 -0.546724L-0.920898 -1.96094L-2.33511 -3.37515C-3.27241 -2.43786 -3.7998 -1.16647 -3.7998 0.160156H-1.7998ZM-0.920898 -1.96094L0.493302 -0.546711C0.681239 -0.734644 0.935549 -0.839844 1.2002 -0.839844V-2.83984V-4.83984C-0.126439 -4.83984 -1.39782 -4.31242 -2.3351 -3.37516L-0.920898 -1.96094ZM1.2002 -2.83984V-0.839844H7.2002V-2.83984V-4.83984H1.2002V-2.83984ZM5.61523 3.61719L6.77805 5.24442C7.18994 4.95008 7.59026 4.67189 7.87968 4.47328L6.74805 2.82422L5.61641 1.17516C5.31132 1.38452 4.88956 1.67758 4.45242 1.98996L5.61523 3.61719ZM6.74805 2.82422L7.99744 4.38596L8.00232 4.38205L6.75293 2.82031L5.50354 1.25857L5.49866 1.26248L6.74805 2.82422ZM6.75293 2.82031L5.62139 1.17118C5.31505 1.38138 4.89119 1.67629 4.45209 1.9902L5.61523 3.61719L6.77838 5.24418C7.19309 4.9477 7.59552 4.6677 7.88447 4.46944L6.75293 2.82031Z" fill="#1F1F1F" mask="url(#path-6-outside-2_145_35)"/>
</g>
<defs>
<clipPath id="clip0_145_35">
<rect width="32" height="32" rx="4" fill="white"/>
</clipPath>
</defs>
</svg>
